<?xml version="1.0" encoding="utf-8"?>
<!-- Generator: Adobe Illustrator 27.2.0, SVG Export Plug-In . SVG Version: 6.00 Build 0)  -->
<svg version="1.1" id="Layer_1" xmlns="http://www.w3.org/2000/svg" xmlns:xlink="http://www.w3.org/1999/xlink" x="0px" y="0px"
	 viewBox="0 0 1920 1080" style="enable-background:new 0 0 1920 1080;" xml:space="preserve">
<path d="M1473.7,601.1c0-0.8-0.4-1.6-1.1-2.1c-1.1-0.6-2.3-0.8-3.5-0.8h-4.1v6h3.6c1.3,0.1,2.6-0.2,3.7-0.6
	C1473.3,603.1,1473.8,602.1,1473.7,601.1z"/>
<path d="M1224.3,478.1h-24.8v49.5h24.8c1,0,1.9-0.1,2.8-0.2c13.6-1.6,23.3-13.8,21.8-27.4C1247.5,487.6,1236.9,478.1,1224.3,478.1z"
	/>
<path d="M769,478.1c-13.7,0-24.7,11.1-24.8,24.7v74.3c0,13.7,11.1,24.8,24.8,24.8s24.8-11.1,24.8-24.8l0,0v-74.3
	C793.7,489.2,782.7,478.1,769,478.1z"/>
<path d="M314.5,141.1v798h1291v-798H314.5z M528.2,626.6h-24.7V502.9c0-13.7-11.1-24.7-24.8-24.7l0,0c-13.7,0-24.7,11.1-24.8,24.7
	v123.8h-24.8V502.9c0-27.3,22.2-49.5,49.5-49.5l0,0c27.3,0,49.5,22.2,49.5,49.5L528.2,626.6z M673.3,577.1
	c0,27.3-22.2,49.5-49.5,49.5l0,0c-27.3,0-49.5-22.2-49.5-49.5V453.4h24.8v123.8c0,13.7,11.1,24.7,24.8,24.8l0,0
	c13.7,0,24.7-11.1,24.8-24.8V453.4h24.8V577.1z M818.5,577.1c0,27.3-22.2,49.5-49.5,49.5l0,0c-27.3,0-49.5-22.2-49.5-49.5v-74.3
	c0-27.3,22.2-49.5,49.5-49.5l0,0c27.3,0,49.5,22.2,49.5,49.5L818.5,577.1z M963.2,458.5c-0.5,2.1-1,4.3-1.4,6.6l-27.9,125.2
	c-1,4.8-2,9.4-3,13.7c-0.9,3.9-2,7.7-3.5,11.4c-1.2,3-2.9,5.7-5.2,8c-2.1,2.1-5,3.2-8,3.1c-3,0.1-5.8-1-8-3.1
	c-2.3-2.3-4.1-5-5.3-8.1c-1.4-3.7-2.6-7.6-3.5-11.5c-1-4.3-2-8.8-3-13.6l-27.3-124.2c-0.5-2.3-1-4.5-1.5-6.7
	c-0.4-1.9-0.8-3.8-1.1-5.9h24.1l0.1,0.3l26.1,128.5l26-128.8h23.3C963.9,455.2,963.6,456.8,963.2,458.5z M1035.1,626.6h-24.8V453.4
	h24.8V626.6z M1259.3,541.9c9.3,9.3,14.5,21.9,14.5,35v49.8h-24.8v-49.8c0-12.6-9.4-23.1-21.9-24.6c-0.9-0.1-1.9-0.2-2.8-0.2h-24.8
	v74.5h-24.8V453.4h49.5c27.3,0,49.5,22.1,49.5,49.5c0,14.2-6.1,27.6-16.6,37C1257.9,540.5,1258.6,541.2,1259.3,541.9z M1419,478.1
	h-49.5c-13.7,0-24.8,11.1-24.8,24.8c0,13.7,11.1,24.8,24.8,24.8h49.5v24.8h-49.5c-13.7,0-24.8,11.1-24.8,24.8s11.1,24.8,24.8,24.8
	h49.5v24.8h-49.5c-27.3,0-49.5-22.2-49.5-49.5c0-13.1,5.2-25.7,14.5-35c0.7-0.7,1.5-1.5,2.3-2.1c-20.5-18.1-22.5-49.4-4.4-69.9
	c9.4-10.7,22.9-16.8,37.1-16.8h49.5V478.1z M1488,616.2c-5.8,10.2-18.8,13.7-28.9,7.9c-10.2-5.8-13.7-18.8-7.9-28.9
	c5.8-10.2,18.8-13.7,28.9-7.9c6.6,3.8,10.7,10.8,10.7,18.4C1490.8,609.4,1489.9,613,1488,616.2z"/>
<path d="M1478.4,591.1c-5.2-3-11.6-3-16.9,0c-2.6,1.5-4.7,3.6-6.2,6.1c-3,5.2-3,11.7,0,16.9c3,5.2,8.6,8.4,14.6,8.4
	c3,0,5.9-0.7,8.4-2.2c7.9-4.7,10.6-15,6.1-23C1483,594.7,1480.9,592.6,1478.4,591.1z M1474.2,616.9l-1.8-3.6
	c-0.6-1.2-1.4-2.4-2.2-3.6c-0.5-0.7-1.1-1.2-1.8-1.6c-0.7-0.3-1.5-0.4-2.2-0.4h-1.2v9.1h-4.5v-22.2h10.5c1.4,0,2.8,0.2,4.1,0.8
	c1,0.5,1.9,1.2,2.5,2.2c0.6,1,0.9,2.2,0.8,3.3c0,1.5-0.5,3-1.6,4.1c-1.2,1.2-2.7,1.9-4.4,2.1c0.9,0.3,1.7,0.9,2.3,1.6
	c0.9,1.2,1.7,2.4,2.4,3.7l2.6,4.5L1474.2,616.9z"/>
</svg>
