<svg id="Layer_1" data-name="Layer 1" xmlns="http://www.w3.org/2000/svg" viewBox="0 0 1920 1080"><path d="M1473.66,601.07a2.39,2.39,0,0,0-1.12-2.08,6.24,6.24,0,0,0-3.47-.76H1465v6h3.64a8.62,8.62,0,0,0,3.74-.64A2.58,2.58,0,0,0,1473.66,601.07Z"/><path d="M1224.33,478.13h-24.75v49.5h24.75a22.25,22.25,0,0,0,2.85-.18,24.74,24.74,0,0,0-2.85-49.32Z"/><path d="M769,478.13a24.75,24.75,0,0,0-24.75,24.74v74.26a24.75,24.75,0,1,0,49.5,0V502.87A24.75,24.75,0,0,0,769,478.13Z"/><path d="M314.5,141.05V939h1291V141.05ZM528.17,626.63H503.42V502.87a24.75,24.75,0,0,0-24.75-24.74h0a24.75,24.75,0,0,0-24.75,24.74V626.63H429.17V502.87a49.5,49.5,0,0,1,49.5-49.49h0a49.5,49.5,0,0,1,49.5,49.49Zm145.16-49.5a49.5,49.5,0,0,1-49.5,49.5h0a49.51,49.51,0,0,1-49.5-49.5V453.38h24.75V577.13a24.76,24.76,0,0,0,24.75,24.75h0a24.76,24.76,0,0,0,24.75-24.75V453.38h24.75Zm145.17,0a49.5,49.5,0,0,1-49.5,49.5h0a49.5,49.5,0,0,1-49.5-49.5V502.87A49.5,49.5,0,0,1,769,453.38h0a49.5,49.5,0,0,1,49.5,49.49ZM963.23,458.46c-.47,2.13-1,4.33-1.42,6.59L933.94,590.29q-1.49,7.2-3,13.66a79,79,0,0,1-3.45,11.38,22.52,22.52,0,0,1-5.23,8,11,11,0,0,1-8,3.14,11.21,11.21,0,0,1-8-3.07,22.23,22.23,0,0,1-5.26-8.1,80.4,80.4,0,0,1-3.49-11.45c-1-4.27-2-8.79-3-13.59L867.21,466.1c-.47-2.26-1-4.49-1.45-6.67-.42-1.85-.79-3.82-1.09-5.93h24.07l.06.31,26.07,128.51,26-128.82h23.28C963.9,455.18,963.59,456.83,963.23,458.46Zm71.85,168.17h-24.75V453.38h24.75Zm224.25-84.75a49.3,49.3,0,0,1,14.5,35v49.75h-24.75V576.88a24.74,24.74,0,0,0-21.9-24.59,24.25,24.25,0,0,0-2.85-.16h-24.75v74.5h-24.75V453.38h49.5a49.49,49.49,0,0,1,32.87,86.5C1257.93,540.52,1258.64,541.18,1259.33,541.88ZM1419,478.13h-49.5a24.75,24.75,0,0,0,0,49.5H1419v24.75h-49.5a24.75,24.75,0,0,0,0,49.5H1419v24.75h-49.5a49.5,49.5,0,0,1-35-84.5c.73-.74,1.49-1.46,2.27-2.12a49.5,49.5,0,0,1,32.73-86.63H1419Zm69,138.08a21.21,21.21,0,1,1,2.8-10.5A20.68,20.68,0,0,1,1488,616.21Z"/><path d="M1478.41,591.13a17,17,0,0,0-16.87,0,16.82,16.82,0,0,0-6.15,6.13,16.84,16.84,0,0,0,0,16.89,16.8,16.8,0,0,0,14.56,8.37,16.37,16.37,0,0,0,8.45-2.25,17,17,0,0,0,6.08-23A16.41,16.41,0,0,0,1478.41,591.13Zm-4.2,25.78-1.83-3.58a26.7,26.7,0,0,0-2.19-3.56,5,5,0,0,0-1.8-1.57,5.22,5.22,0,0,0-2.21-.41H1465v9.12h-4.53v-22.2H1471a9.72,9.72,0,0,1,4.13.78,5.49,5.49,0,0,1,2.51,2.21,6.41,6.41,0,0,1,.84,3.31,5.75,5.75,0,0,1-1.58,4.06,7.06,7.06,0,0,1-4.39,2.09,5.39,5.39,0,0,1,2.33,1.62,29.05,29.05,0,0,1,2.36,3.65l2.62,4.48Z"/></svg>